<svg width="240" height="80" viewBox="0 0 240 80" fill="none" xmlns="http://www.w3.org/2000/svg">
<path d="M2.26249 35.1111C2.34188 34.0713 2.38157 32.8296 2.38157 31.3862V19.9323C2.17517 19.9323 1.83381 19.9711 1.3575 20.0487C0.881181 20.1263 0.460437 20.2039 0.0952628 20.2815L0 20.1418L0.547761 19.0476H4.5488V19.2804C4.46941 20.5686 4.42972 21.8102 4.42972 23.0053V34.4593C4.63612 34.4593 4.97748 34.4205 5.4538 34.3429C5.93011 34.2497 6.35086 34.1644 6.71603 34.0868L6.81129 34.2265L6.26353 35.3439H2.26249V35.1111Z" fill="#151514"/>
<path d="M10.7515 35.4836C10.3704 35.4836 10.045 35.3517 9.77505 35.0878C9.50513 34.824 9.37018 34.5058 9.37018 34.1333C9.37018 33.7453 9.50513 33.4272 9.77505 33.1788C10.045 32.915 10.3704 32.7831 10.7515 32.7831C11.1484 32.7831 11.4818 32.915 11.7517 33.1788C12.0217 33.4272 12.1566 33.7453 12.1566 34.1333C12.1566 34.5058 12.0217 34.824 11.7517 35.0878C11.4818 35.3517 11.1484 35.4836 10.7515 35.4836Z" fill="#151514"/>
<path d="M16.6124 35.1111C16.6441 34.6455 16.668 34.1256 16.6838 33.5513C16.7156 32.9616 16.7315 32.2399 16.7315 31.3862V19.9323C16.5251 19.9323 16.1837 19.9711 15.7074 20.0487C15.2311 20.1263 14.8103 20.2039 14.4452 20.2815L14.3499 20.1418L14.8977 19.0476H18.8987V19.2804C18.8828 19.8857 18.859 20.5376 18.8272 21.236C18.7955 21.7637 18.7796 22.3534 18.7796 23.0053V26.6603H21.3993L24.6145 22.8889C25.0273 22.3922 25.4321 21.8956 25.8291 21.3989C26.226 20.9023 26.607 20.4056 26.9722 19.909C26.7976 19.909 26.5674 19.9323 26.2816 19.9788C26.0117 20.0254 25.7338 20.072 25.448 20.1185L24.6145 20.2815L24.5192 20.1418L25.067 19.0476H29.4014V19.2571C29.0839 19.5675 28.7663 19.878 28.4488 20.1884C28.1313 20.4832 27.8216 20.7859 27.52 21.0963C27.2183 21.4222 26.9166 21.7481 26.615 22.0741C26.3133 22.4 26.0275 22.7259 25.7576 23.0519L22.9235 26.4042L26.996 31.4095C28.0439 32.6511 29.1712 33.885 30.3779 35.1111V35.3439H25.186L24.6145 34.2497L24.7097 34.1101C24.8526 34.1411 25.0035 34.1721 25.1622 34.2032C25.3369 34.2342 25.5036 34.273 25.6624 34.3196C25.9481 34.3817 26.2181 34.4437 26.4721 34.5058C26.742 34.5679 26.9563 34.5989 27.1151 34.5989L21.4232 27.7312H18.7796V31.3862C18.7796 32.0381 18.7955 32.6279 18.8272 33.1556C18.859 33.854 18.8828 34.5058 18.8987 35.1111V35.3439H16.6124V35.1111Z" fill="#151514"/>
<path d="M35.5388 35.6C34.2845 35.6 33.316 35.3206 32.6333 34.7619C31.9506 34.1877 31.6092 33.4427 31.6092 32.527C31.6092 31.6578 31.8871 30.975 32.4428 30.4783C32.9985 29.9817 33.6812 29.6325 34.4909 29.4307C35.3165 29.2134 36.285 29.066 37.3964 28.9884C38.1585 28.9263 38.7777 28.8487 39.2541 28.7556C39.7304 28.6469 40.1035 28.484 40.3734 28.2667C40.6433 28.0494 40.7783 27.77 40.7783 27.4286C40.7783 26.5129 40.5242 25.7834 40.0162 25.2402C39.524 24.6815 38.8651 24.4021 38.0395 24.4021C37.4044 24.4021 36.7852 24.5651 36.1818 24.891C35.5785 25.2014 35.0307 25.6282 34.5385 26.1714C34.0464 26.7146 33.6415 27.3277 33.3239 28.0106L33.3001 28.0339L32.4904 27.8476L33.8479 22.9587H34.9434L34.991 23.0519L34.3242 24.728C34.5147 24.666 34.7767 24.5496 35.1101 24.3788C35.5706 24.0995 36.031 23.8822 36.4914 23.727C36.9519 23.5563 37.4996 23.4709 38.1347 23.4709C39.4525 23.4709 40.4925 23.8899 41.2546 24.728C42.0326 25.5661 42.4215 26.6991 42.4215 28.127V34.5058C42.6121 34.5058 43.144 34.4127 44.0172 34.2265C44.0648 34.2109 44.1125 34.2032 44.1601 34.2032C44.2077 34.1877 44.2474 34.1721 44.2792 34.1566L44.3744 34.2963L43.9219 35.3439H40.7068V35.1111C40.7227 34.8783 40.7306 34.6377 40.7306 34.3894C40.7465 34.1256 40.7544 33.8695 40.7544 33.6212C40.7703 33.4504 40.7783 33.2875 40.7783 33.1323C40.7783 32.9771 40.7783 32.8219 40.7783 32.6667C40.3972 33.5668 39.7304 34.2808 38.7777 34.8085C37.8251 35.3362 36.7455 35.6 35.5388 35.6ZM36.0151 34.5524C36.8884 34.5524 37.6902 34.3661 38.4205 33.9937C39.1509 33.6056 39.7224 33.078 40.1352 32.4106C40.5639 31.7432 40.7783 31.006 40.7783 30.1989L40.8021 28.9185C40.5322 29.1513 40.1352 29.3453 39.6113 29.5005C39.0873 29.6402 38.484 29.7411 37.8013 29.8032C36.3088 29.9273 35.1974 30.1912 34.4671 30.5947C33.7526 30.9982 33.3954 31.619 33.3954 32.4571C33.3954 33.1245 33.6335 33.6444 34.1099 34.0169C34.5862 34.3739 35.2213 34.5524 36.0151 34.5524Z" fill="#151514"/>
<path d="M47.4163 35.1111C47.4798 33.6988 47.5116 32.4571 47.5116 31.3862V24.5418C47.2417 24.5418 46.7098 24.6272 45.9159 24.7979L45.6302 24.8677L45.5587 24.728L45.9874 23.7037H51.6793C53.1877 23.7037 54.3705 23.9753 55.2279 24.5185C56.1011 25.0462 56.5377 25.7679 56.5377 26.6836C56.5377 27.3665 56.3075 27.9485 55.8471 28.4296C55.4025 28.8952 54.7754 29.2289 53.9657 29.4307C54.95 29.6014 55.7201 29.9351 56.2758 30.4317C56.8474 30.9284 57.1331 31.557 57.1331 32.3175C57.1331 33.2487 56.6806 33.9859 55.7756 34.5291C54.8706 35.0723 53.6402 35.3439 52.0842 35.3439H47.4163V35.1111ZM51.9175 34.436C52.9813 34.436 53.8148 34.2342 54.4181 33.8307C55.0374 33.4272 55.347 32.884 55.347 32.2011C55.347 31.5182 55.0294 30.975 54.3943 30.5714C53.7751 30.1679 52.9495 29.9661 51.9175 29.9661H49.2501V34.436H51.9175ZM51.5603 29.0582C52.5764 29.0582 53.3703 28.8564 53.9418 28.4529C54.5293 28.0494 54.823 27.4984 54.823 26.8C54.823 26.1326 54.5293 25.6049 53.9418 25.2169C53.3703 24.8289 52.5764 24.6349 51.5603 24.6349H49.2501V29.0582H51.5603Z" fill="#151514"/>
<path d="M63.0525 35.6C61.7982 35.6 60.8297 35.3206 60.1469 34.7619C59.4642 34.1877 59.1229 33.4427 59.1229 32.527C59.1229 31.6578 59.4007 30.975 59.9564 30.4783C60.5121 29.9817 61.1948 29.6325 62.0046 29.4307C62.8302 29.2134 63.7987 29.066 64.9101 28.9884C65.6722 28.9263 66.2914 28.8487 66.7677 28.7556C67.244 28.6469 67.6171 28.484 67.887 28.2667C68.157 28.0494 68.2919 27.77 68.2919 27.4286C68.2919 26.5129 68.0379 25.7834 67.5298 25.2402C67.0376 24.6815 66.3787 24.4021 65.5531 24.4021C64.918 24.4021 64.2988 24.5651 63.6955 24.891C63.0922 25.2014 62.5444 25.6282 62.0522 26.1714C61.56 26.7146 61.1551 27.3277 60.8376 28.0106L60.8138 28.0339L60.0041 27.8476L61.3615 22.9587H62.4571L62.5047 23.0519L61.8379 24.728C62.0284 24.666 62.2904 24.5496 62.6238 24.3788C63.0842 24.0995 63.5447 23.8822 64.0051 23.727C64.4655 23.5563 65.0133 23.4709 65.6484 23.4709C66.9662 23.4709 68.0061 23.8899 68.7682 24.728C69.5462 25.5661 69.9352 26.6991 69.9352 28.127V34.5058C70.1257 34.5058 70.6576 34.4127 71.5309 34.2265C71.5785 34.2109 71.6261 34.2032 71.6738 34.2032C71.7214 34.1877 71.7611 34.1721 71.7928 34.1566L71.8881 34.2963L71.4356 35.3439H68.2205V35.1111C68.2364 34.8783 68.2443 34.6377 68.2443 34.3894C68.2602 34.1256 68.2681 33.8695 68.2681 33.6212C68.284 33.4504 68.2919 33.2875 68.2919 33.1323C68.2919 32.9771 68.2919 32.8219 68.2919 32.6667C67.9109 33.5668 67.244 34.2808 66.2914 34.8085C65.3388 35.3362 64.2591 35.6 63.0525 35.6ZM63.5288 34.5524C64.402 34.5524 65.2038 34.3661 65.9342 33.9937C66.6645 33.6056 67.2361 33.078 67.6489 32.4106C68.0776 31.7432 68.2919 31.006 68.2919 30.1989L68.3157 28.9185C68.0458 29.1513 67.6489 29.3453 67.1249 29.5005C66.601 29.6402 65.9977 29.7411 65.315 29.8032C63.8225 29.9273 62.7111 30.1912 61.9808 30.5947C61.2663 30.9982 60.909 31.619 60.909 32.4571C60.909 33.1245 61.1472 33.6444 61.6235 34.0169C62.0998 34.3739 62.7349 34.5524 63.5288 34.5524Z" fill="#151514"/>
<path d="M72.5961 31.2233L73.4058 31.0138L73.4772 31.3164C73.6042 31.7975 73.7551 32.2399 73.9297 32.6434C74.1044 33.0314 74.2949 33.334 74.5013 33.5513C74.7077 33.7531 74.9221 33.854 75.1443 33.854C75.4301 33.854 75.708 33.5203 75.9779 32.8529C76.2478 32.17 76.4701 31.2233 76.6447 30.0127C76.8353 28.8021 76.9385 27.4363 76.9543 25.9153C76.9543 25.7446 76.9464 25.5817 76.9305 25.4265C76.9146 25.2713 76.8988 25.1161 76.8829 24.9608L76.8353 24.5418C76.4542 24.5573 75.8191 24.666 74.93 24.8677L74.8585 24.728L75.3349 23.7037H83.1702C83.4243 23.7037 83.6942 23.6959 83.98 23.6804C84.2657 23.6649 84.496 23.6416 84.6706 23.6106L84.6944 23.7968C84.615 24.8677 84.5753 26.1559 84.5753 27.6614V34.5058C84.7341 34.5058 84.9961 34.4748 85.3613 34.4127C85.7264 34.3351 86.0916 34.2497 86.4568 34.1566L86.5282 34.2963L86.0757 35.3439H82.7177V35.1111C82.7812 33.6832 82.813 32.4416 82.813 31.3862V24.6815H78.3118C78.2959 24.8367 78.2801 24.9919 78.2642 25.1471C78.2483 25.3023 78.2324 25.4575 78.2166 25.6127C78.0102 27.5217 77.772 29.2056 77.5021 30.6646C77.2322 32.1235 76.8908 33.3185 76.478 34.2497C76.0811 35.1654 75.6127 35.6233 75.0729 35.6233C74.93 35.6233 74.803 35.5767 74.6918 35.4836C74.5807 35.3905 74.4775 35.2741 74.3822 35.1344C74.3663 35.1189 74.3505 35.1111 74.3346 35.1111C74.3187 35.0956 74.3028 35.0801 74.287 35.0646L74.8109 36.6476L74.7156 36.764H73.6678L72.5961 31.2233Z" fill="#151514"/>
<path d="M97.5549 36.019L98.2932 34.1799C98.1821 34.2265 98.0471 34.2885 97.8883 34.3661C97.7454 34.4282 97.5946 34.5058 97.4358 34.5989C96.9913 34.8938 96.5467 35.1344 96.1022 35.3206C95.6576 35.4914 95.1098 35.5767 94.4589 35.5767C93.3157 35.5767 92.2758 35.3206 91.339 34.8085C90.4181 34.2808 89.6878 33.5591 89.148 32.6434C88.624 31.7277 88.362 30.6956 88.362 29.5471C88.362 28.3986 88.624 27.3665 89.148 26.4508C89.6878 25.5196 90.4181 24.7901 91.339 24.2624C92.2758 23.7347 93.3157 23.4709 94.4589 23.4709C95.6338 23.4709 96.6737 23.727 97.5787 24.2392C98.4837 24.7513 99.1903 25.4653 99.6983 26.381C100.206 27.2966 100.46 28.3365 100.46 29.5005C100.46 29.5781 100.46 29.6635 100.46 29.7566C100.46 29.8342 100.46 29.9041 100.46 29.9661H90.1959C90.2435 30.8663 90.4499 31.6734 90.8151 32.3873C91.1961 33.0857 91.6962 33.6367 92.3155 34.0402C92.9505 34.4282 93.6571 34.6222 94.4351 34.6222C95.0701 34.6222 95.6973 34.4593 96.3165 34.1333C96.9516 33.8074 97.5073 33.3961 97.9836 32.8995C98.4599 32.4028 98.8092 31.9139 99.0315 31.4328V31.4095L99.9603 31.6423L98.7219 36.1122H97.6264L97.5549 36.019ZM98.6266 29.0349C98.5631 28.1192 98.3488 27.3199 97.9836 26.637C97.6343 25.9386 97.15 25.3954 96.5308 25.0074C95.9275 24.6194 95.221 24.4254 94.4112 24.4254C93.6333 24.4254 92.9347 24.6272 92.3155 25.0307C91.6962 25.4187 91.1961 25.9619 90.8151 26.6603C90.4499 27.3432 90.2435 28.1347 90.1959 29.0349H98.6266Z" fill="#151514"/>
<path d="M104.188 39.7672C104.251 38.3704 104.283 37.1287 104.283 36.0423V24.5418C104.013 24.5418 103.481 24.6272 102.688 24.7979L102.402 24.8677L102.33 24.728L102.759 23.7037H104.45C104.688 23.7037 104.966 23.6959 105.283 23.6804C105.601 23.6649 105.839 23.6416 105.998 23.6106L106.022 23.7968C106.006 23.9986 105.99 24.2081 105.974 24.4254C105.974 24.6272 105.974 24.8289 105.974 25.0307C105.958 25.2325 105.95 25.442 105.95 25.6593C105.95 25.8765 105.942 26.0938 105.927 26.3111C106.339 25.4265 106.943 24.7358 107.736 24.2392C108.546 23.727 109.475 23.4709 110.523 23.4709C111.571 23.4709 112.508 23.7347 113.333 24.2624C114.175 24.7901 114.834 25.5196 115.31 26.4508C115.802 27.3665 116.048 28.3908 116.048 29.5238C116.048 30.6723 115.802 31.7044 115.31 32.6201C114.834 33.5358 114.175 34.2575 113.333 34.7852C112.508 35.3129 111.571 35.5767 110.523 35.5767C109.491 35.5767 108.586 35.3362 107.808 34.855C107.03 34.3584 106.443 33.691 106.046 32.8529V39.1619C106.363 39.1619 106.99 39.0765 107.927 38.9058C108.07 38.8748 108.189 38.8515 108.284 38.836L108.38 38.9757L107.832 40H104.188V39.7672ZM110.07 34.5058C110.848 34.5058 111.547 34.2885 112.166 33.854C112.785 33.4194 113.27 32.8296 113.619 32.0847C113.984 31.3242 114.167 30.4705 114.167 29.5238C114.167 28.5771 113.984 27.7235 113.619 26.963C113.27 26.2025 112.785 25.6127 112.166 25.1937C111.547 24.7591 110.848 24.5418 110.07 24.5418C109.292 24.5418 108.586 24.7668 107.951 25.2169C107.332 25.667 106.847 26.2723 106.498 27.0328C106.149 27.7933 105.974 28.6236 105.974 29.5238C105.974 30.4705 106.149 31.3242 106.498 32.0847C106.863 32.8296 107.355 33.4194 107.975 33.854C108.61 34.2885 109.308 34.5058 110.07 34.5058Z" fill="#151514"/>
<path d="M119.747 35.1111C119.811 33.6988 119.843 32.4571 119.843 31.3862V24.5418C119.573 24.5418 119.041 24.6272 118.247 24.7979L117.961 24.8677L117.89 24.728L118.318 23.7037H120.128C120.382 23.7037 120.66 23.6959 120.962 23.6804C121.264 23.6649 121.51 23.6416 121.7 23.6106L121.724 23.7968C121.645 24.9764 121.605 26.2646 121.605 27.6614V34.5058C121.843 34.5058 122.343 34.4205 123.105 34.2497L123.462 34.1566L123.534 34.2963L123.105 35.3439H119.747V35.1111ZM121.891 18L120.724 22.0508H120.486L119.319 18H121.891Z" fill="#151514"/>
<path d="M123.983 38.1376L124.579 34.0635L124.698 34.0402C124.761 34.0713 124.833 34.1023 124.912 34.1333C124.992 34.1489 125.079 34.1721 125.174 34.2032C125.301 34.2187 125.428 34.242 125.555 34.273C125.698 34.2885 125.849 34.3041 126.008 34.3196C126.452 33.0314 126.818 31.5958 127.103 30.0127C127.405 28.4141 127.556 27.1725 127.556 26.2878C127.556 26.0861 127.548 25.8765 127.532 25.6593C127.516 25.442 127.5 25.2325 127.484 25.0307C127.469 24.9376 127.453 24.8522 127.437 24.7746C127.437 24.6815 127.437 24.6039 127.437 24.5418C127.294 24.5418 127.095 24.5651 126.841 24.6116C126.603 24.6427 126.357 24.6892 126.103 24.7513C126.008 24.7668 125.913 24.7901 125.817 24.8212C125.738 24.8367 125.659 24.8522 125.579 24.8677L125.508 24.728L125.96 23.7037H133.343C133.676 23.7037 134.073 23.6959 134.534 23.6804C135.01 23.6649 135.367 23.6416 135.606 23.6106L135.629 23.7968C135.566 25.0229 135.534 26.3111 135.534 27.6614V31.1767C135.534 31.7044 135.534 32.2399 135.534 32.7831C135.55 33.3108 135.574 33.8462 135.606 34.3894H136.582L136.511 33.8074V33.7608L137.201 33.7376L137.82 38.0677L136.915 38.1841L136.677 37.1132C136.598 36.7252 136.455 36.3993 136.249 36.1355C136.058 35.8716 135.82 35.6698 135.534 35.5302C135.248 35.406 134.939 35.3439 134.605 35.3439H127.437C127.072 35.3439 126.73 35.4215 126.413 35.5767C126.111 35.7319 125.841 35.9414 125.603 36.2053C125.381 36.4691 125.214 36.7718 125.103 37.1132L124.841 38.254L123.983 38.1376ZM133.772 24.6582H128.985C128.985 24.7358 128.977 24.8056 128.961 24.8677C128.961 24.9143 128.961 24.9764 128.961 25.054C128.755 26.8698 128.493 28.5383 128.175 30.0593C127.873 31.5802 127.5 33.0081 127.056 34.3429C127.214 34.3584 127.389 34.3739 127.58 34.3894C127.786 34.3894 127.992 34.3894 128.199 34.3894H133.772V24.6582Z" fill="#151514"/>
<path d="M138.964 30.8741L139.797 30.6413L140.012 31.1767C140.218 31.7199 140.591 32.2631 141.131 32.8064C141.671 33.334 142.282 33.7841 142.965 34.1566C143.663 34.5136 144.314 34.6921 144.918 34.6921C145.823 34.6921 146.545 34.467 147.085 34.0169C147.625 33.5513 147.895 32.9616 147.895 32.2476C147.895 31.5647 147.649 31.0138 147.156 30.5947C146.68 30.1757 146.045 29.9661 145.251 29.9661H145.037V31.6889H144.322L143.798 27.7312H145.037V29.0815H145.227C145.64 29.0815 146.021 28.9806 146.37 28.7788C146.72 28.5771 146.99 28.3055 147.18 27.964C147.387 27.6071 147.49 27.219 147.49 26.8C147.49 26.0705 147.26 25.4808 146.799 25.0307C146.355 24.5806 145.743 24.3556 144.965 24.3556C144.362 24.3556 143.727 24.5263 143.06 24.8677C142.409 25.1937 141.814 25.6205 141.274 26.1481C140.75 26.6758 140.361 27.2268 140.107 27.8011L140.035 27.9175L139.345 27.7079L140.607 23.2148H141.679L141.75 23.3079L141.202 24.7048C141.298 24.6582 141.401 24.6039 141.512 24.5418C141.639 24.4797 141.766 24.4176 141.893 24.3556C142.385 24.0762 142.869 23.8589 143.346 23.7037C143.838 23.533 144.433 23.4476 145.132 23.4476C145.942 23.4476 146.656 23.5873 147.275 23.8667C147.91 24.146 148.403 24.5263 148.752 25.0074C149.101 25.473 149.276 26.0085 149.276 26.6138C149.276 27.2811 149.054 27.8709 148.609 28.3831C148.165 28.8797 147.569 29.2444 146.823 29.4772C147.696 29.6325 148.403 29.9661 148.943 30.4783C149.482 30.9905 149.752 31.6035 149.752 32.3175C149.752 32.9538 149.538 33.528 149.109 34.0402C148.681 34.5369 148.101 34.9249 147.371 35.2042C146.656 35.4681 145.862 35.6 144.989 35.6C144.243 35.6 143.608 35.5069 143.084 35.3206C142.56 35.1189 142.068 34.8705 141.607 34.5757C141.48 34.5136 141.353 34.4515 141.226 34.3894C141.115 34.3273 141.004 34.2808 140.893 34.2497L141.536 35.8328L141.488 35.9492H140.416L138.964 30.8741Z" fill="#151514"/>
<path d="M161.094 36.019L161.833 34.1799C161.722 34.2265 161.587 34.2885 161.428 34.3661C161.285 34.4282 161.134 34.5058 160.975 34.5989C160.531 34.8938 160.086 35.1344 159.642 35.3206C159.197 35.4914 158.649 35.5767 157.998 35.5767C156.855 35.5767 155.815 35.3206 154.879 34.8085C153.958 34.2808 153.227 33.5591 152.688 32.6434C152.164 31.7277 151.902 30.6956 151.902 29.5471C151.902 28.3986 152.164 27.3665 152.688 26.4508C153.227 25.5196 153.958 24.7901 154.879 24.2624C155.815 23.7347 156.855 23.4709 157.998 23.4709C159.173 23.4709 160.213 23.727 161.118 24.2392C162.023 24.7513 162.73 25.4653 163.238 26.381C163.746 27.2966 164 28.3365 164 29.5005C164 29.5781 164 29.6635 164 29.7566C164 29.8342 164 29.9041 164 29.9661H153.735C153.783 30.8663 153.989 31.6734 154.355 32.3873C154.736 33.0857 155.236 33.6367 155.855 34.0402C156.49 34.4282 157.197 34.6222 157.975 34.6222C158.61 34.6222 159.237 34.4593 159.856 34.1333C160.491 33.8074 161.047 33.3961 161.523 32.8995C161.999 32.4028 162.349 31.9139 162.571 31.4328V31.4095L163.5 31.6423L162.261 36.1122H161.166L161.094 36.019ZM162.166 29.0349C162.103 28.1192 161.888 27.3199 161.523 26.637C161.174 25.9386 160.69 25.3954 160.07 25.0074C159.467 24.6194 158.761 24.4254 157.951 24.4254C157.173 24.4254 156.474 24.6272 155.855 25.0307C155.236 25.4187 154.736 25.9619 154.355 26.6603C153.989 27.3432 153.783 28.1347 153.735 29.0349H162.166Z" fill="#151514"/>
<path d="M14.7521 58.627C14.8449 58.1001 14.9146 57.5921 14.961 57.1028C15.0167 56.6136 15.0445 56.0349 15.0445 55.3669V52.502C14.9424 52.455 14.8356 52.4126 14.7242 52.375C14.6128 52.328 14.4921 52.2903 14.3621 52.2621C14.3064 52.2433 14.246 52.2292 14.1811 52.2198C14.1253 52.2103 14.065 52.2009 14 52.1915L14.1393 51.6976H14.6128C14.9192 51.6976 15.221 51.6882 15.5181 51.6694C15.8245 51.6505 16.0891 51.6317 16.3119 51.6129L16.3676 51.6411C16.5998 52.2339 16.9108 52.9395 17.3008 53.7581C17.3379 53.8427 17.375 53.9274 17.4122 54.0121C17.4493 54.0874 17.4865 54.1626 17.5236 54.2379L18.9024 57.131L21.4929 51.6976H21.8689C22.0175 51.6976 22.1799 51.6929 22.3564 51.6835C22.5328 51.6741 22.6767 51.6599 22.7881 51.6411L22.802 51.754C22.7556 52.4126 22.7324 53.1935 22.7324 54.0968V58.246C22.8438 58.246 23.1549 58.1895 23.6655 58.0766C23.6934 58.0672 23.7212 58.0625 23.7491 58.0625C23.7769 58.0531 23.8048 58.0437 23.8327 58.0343L23.8744 58.119L23.6098 58.754H21.6461V58.6129C21.6554 58.4153 21.6646 58.2177 21.6739 58.0202C21.6832 57.8226 21.6879 57.6297 21.6879 57.4415C21.6971 57.2251 21.7018 56.9005 21.7018 56.4677V52.5444L18.7771 58.754H18.5821L15.7827 53.0101C15.7734 52.9819 15.7595 52.9583 15.7409 52.9395C15.7316 52.9113 15.7177 52.8878 15.6991 52.869C15.6898 52.8501 15.6759 52.8313 15.6573 52.8125C15.6388 52.7843 15.6156 52.7655 15.5877 52.756V58.2601C15.727 58.2507 15.8895 58.2271 16.0752 58.1895C16.298 58.1425 16.4791 58.1048 16.6183 58.0766L16.6601 58.1613L16.4233 58.754H14.7521V58.627Z" fill="#878684"/>
<path d="M26.3022 58.994L26.7618 58.8528L26.7897 58.9516L26.8733 59.1492C27.0218 59.4785 27.2122 59.7937 27.4443 60.0948C27.6764 60.3958 27.9224 60.6405 28.1824 60.8286C28.4424 61.0168 28.6792 61.1109 28.8927 61.1109C29.1434 61.1109 29.343 61.0215 29.4916 60.8427C29.6494 60.6734 29.7283 60.4476 29.7283 60.1653V59.7702C29.7283 59.5444 29.6912 59.3044 29.6169 59.0504C29.5519 58.8058 29.4266 58.5 29.2409 58.1331C29.2316 58.1142 29.2223 58.0954 29.213 58.0766C29.213 58.0484 29.2038 58.0249 29.1852 58.006L27.6253 54.873C27.1704 53.9415 26.7293 53.0901 26.3022 52.3185L26.0098 51.7964V51.6976H28.4331L28.6838 52.2762L28.642 52.375C28.4842 52.328 28.2846 52.2903 28.0431 52.2621C27.811 52.2245 27.6346 52.2056 27.5139 52.2056L29.9373 57.371C29.9651 57.418 29.9883 57.4651 30.0069 57.5121C30.0255 57.5591 30.044 57.6109 30.0626 57.6673C30.0905 57.7238 30.109 57.7802 30.1183 57.8367C30.1369 57.8837 30.1555 57.9355 30.174 57.9919C30.1833 57.9449 30.1926 57.8979 30.2019 57.8508C30.2204 57.8038 30.239 57.7567 30.2576 57.7097C30.2762 57.6532 30.2947 57.5968 30.3133 57.5403C30.3319 57.4745 30.3504 57.4086 30.369 57.3427L31.5667 54.252C31.6596 54.0168 31.7896 53.631 31.9567 53.0948C32.0124 52.9254 32.0588 52.7655 32.096 52.6149C32.1424 52.455 32.1795 52.3185 32.2074 52.2056C32.096 52.2056 31.9242 52.2245 31.6921 52.2621C31.4693 52.2997 31.2743 52.3421 31.1071 52.3891L31.0514 52.3044L31.3161 51.6976H33.2659V51.8246C33.0987 52.1351 32.9455 52.455 32.8063 52.7843C32.5834 53.2735 32.3792 53.7534 32.1935 54.2238L30.745 57.8931C30.6615 58.1001 30.6011 58.2977 30.564 58.4859C30.5268 58.6647 30.5083 58.8575 30.5083 59.0645V59.6431C30.5083 60.2923 30.3551 60.8004 30.0487 61.1673C29.7516 61.5343 29.3662 61.7177 28.8927 61.7177C28.642 61.7177 28.4192 61.6707 28.2242 61.5766C28.0385 61.4919 27.8621 61.3743 27.695 61.2238C27.5371 61.1203 27.4211 61.0544 27.3468 61.0262L27.695 61.9435L27.6532 62H27.0543L26.3022 58.994Z" fill="#878684"/>
<path d="M35.6616 56.0444L36.149 55.9032L36.2744 56.2278C36.3951 56.5571 36.6133 56.8864 36.929 57.2157C37.2446 57.5356 37.6021 57.8085 38.0014 58.0343C38.4099 58.2507 38.7906 58.3589 39.1434 58.3589C39.6726 58.3589 40.0951 58.2224 40.4108 57.9496C40.7265 57.6673 40.8843 57.3098 40.8843 56.877C40.8843 56.463 40.7404 56.129 40.4526 55.875C40.174 55.621 39.8026 55.494 39.3384 55.494H39.213V56.5383H38.7952L38.4888 54.1391H39.213V54.9577H39.3245C39.5659 54.9577 39.7887 54.8965 39.993 54.7742C40.1972 54.6519 40.3551 54.4872 40.4665 54.2802C40.5872 54.0638 40.6475 53.8286 40.6475 53.5746C40.6475 53.1324 40.5129 52.7749 40.2437 52.502C39.9837 52.2292 39.6262 52.0927 39.1713 52.0927C38.8184 52.0927 38.447 52.1962 38.0571 52.4032C37.6764 52.6008 37.3282 52.8595 37.0125 53.1794C36.7061 53.4993 36.4786 53.8333 36.3301 54.1815L36.2883 54.252L35.8844 54.125L36.6226 51.4012H37.2493L37.2911 51.4577L36.9707 52.3044C37.0265 52.2762 37.0868 52.2433 37.1518 52.2056C37.2261 52.168 37.3004 52.1304 37.3746 52.0927C37.6625 51.9234 37.9457 51.7917 38.2242 51.6976C38.512 51.5941 38.8602 51.5423 39.2687 51.5423C39.7423 51.5423 40.1601 51.627 40.5222 51.7964C40.8936 51.9657 41.1814 52.1962 41.3857 52.4879C41.59 52.7702 41.6921 53.0948 41.6921 53.4617C41.6921 53.8663 41.5621 54.2238 41.3021 54.5343C41.0421 54.8353 40.694 55.0565 40.2576 55.1976C40.7682 55.2917 41.1814 55.494 41.4971 55.8044C41.8128 56.1149 41.9706 56.4866 41.9706 56.9194C41.9706 57.3051 41.8453 57.6532 41.5946 57.9637C41.3439 58.2648 41.005 58.5 40.5779 58.6694C40.1601 58.8293 39.6958 58.9093 39.1852 58.9093C38.7488 58.9093 38.3774 58.8528 38.071 58.7399C37.7646 58.6176 37.4768 58.4671 37.2075 58.2883C37.1332 58.2507 37.059 58.213 36.9847 58.1754C36.9197 58.1378 36.8547 58.1095 36.7897 58.0907L37.1657 59.0504L37.1379 59.121H36.5111L35.6616 56.0444Z" fill="#878684"/>
<path d="M50.2748 59.1633L50.7065 58.0484C50.6415 58.0766 50.5626 58.1142 50.4697 58.1613C50.3862 58.1989 50.298 58.246 50.2051 58.3024C49.9452 58.4812 49.6852 58.627 49.4252 58.7399C49.1652 58.8434 48.8449 58.8952 48.4642 58.8952C47.7957 58.8952 47.1876 58.7399 46.6397 58.4294C46.1012 58.1095 45.6741 57.672 45.3584 57.1169C45.052 56.5618 44.8988 55.9362 44.8988 55.2399C44.8988 54.5437 45.052 53.918 45.3584 53.3629C45.6741 52.7984 46.1012 52.3562 46.6397 52.0363C47.1876 51.7164 47.7957 51.5565 48.4642 51.5565C49.1513 51.5565 49.7595 51.7117 50.2887 52.0222C50.8179 52.3327 51.2311 52.7655 51.5282 53.3206C51.8253 53.8757 51.9739 54.506 51.9739 55.2117C51.9739 55.2587 51.9739 55.3105 51.9739 55.3669C51.9739 55.414 51.9739 55.4563 51.9739 55.494H45.9712C45.9991 56.0397 46.1198 56.5289 46.3333 56.9617C46.5562 57.3851 46.8487 57.7191 47.2108 57.9637C47.5822 58.1989 47.9953 58.3165 48.4503 58.3165C48.8217 58.3165 49.1884 58.2177 49.5505 58.0202C49.9219 57.8226 50.2469 57.5733 50.5255 57.2722C50.804 56.9711 51.0083 56.6747 51.1383 56.3831V56.369L51.6814 56.5101L50.9572 59.2198H50.3165L50.2748 59.1633ZM50.9015 54.9294C50.8644 54.3743 50.739 53.8898 50.5255 53.4758C50.3212 53.0524 50.038 52.7231 49.6759 52.4879C49.3231 52.2527 48.9099 52.1351 48.4364 52.1351C47.9814 52.1351 47.5729 52.2574 47.2108 52.502C46.8487 52.7372 46.5562 53.0665 46.3333 53.4899C46.1198 53.9039 45.9991 54.3837 45.9712 54.9294H50.9015Z" fill="#878684"/>
<path d="M63.0115 58.119L62.7469 58.754H60.7831V58.6129C60.8202 57.832 60.8388 57.0793 60.8388 56.3548V52.8125L56.0339 59.0645H55.825C55.8529 58.246 55.8668 57.4274 55.8668 56.6089V52.2056C55.7182 52.2056 55.4072 52.2574 54.9337 52.3609L54.7665 52.4032L54.7247 52.3185L54.9754 51.6976H56.0339C56.1732 51.6976 56.3357 51.6929 56.5214 51.6835C56.7163 51.6741 56.8603 51.6599 56.9531 51.6411L56.967 51.754C56.9206 52.4126 56.8974 53.1935 56.8974 54.0968V57.0464L60.9781 51.6976H61.0617C61.1731 51.6976 61.3077 51.6929 61.4655 51.6835C61.6234 51.6741 61.7719 51.6599 61.9112 51.6411L61.9251 51.754C61.9251 51.9328 61.9205 52.1163 61.9112 52.3044C61.9112 52.4926 61.9066 52.6855 61.8973 52.8831C61.888 53.0806 61.8787 53.2829 61.8694 53.4899C61.8694 53.6969 61.8694 53.8992 61.8694 54.0968V58.246C61.9809 58.246 62.2919 58.1895 62.8026 58.0766C62.8304 58.0672 62.8583 58.0625 62.8861 58.0625C62.914 58.0531 62.9418 58.0437 62.9697 58.0343L63.0115 58.119ZM61.3959 48.1552C61.3959 48.6351 61.2891 49.0585 61.0756 49.4254C60.8713 49.7829 60.5788 50.0652 60.1982 50.2722C59.8175 50.4698 59.3765 50.5685 58.8751 50.5685C58.3737 50.5685 57.9327 50.4698 57.552 50.2722C57.1713 50.0652 56.8742 49.7829 56.6606 49.4254C56.4564 49.0585 56.3542 48.6351 56.3542 48.1552V48.0423L56.9253 48V48.1411C56.9253 48.621 57.1017 49.0067 57.4545 49.2984C57.8073 49.5806 58.2808 49.7218 58.8751 49.7218C59.4693 49.7218 59.9428 49.5806 60.2957 49.2984C60.6578 49.0067 60.8388 48.621 60.8388 48.1411V48L61.3959 48.0423V48.1552Z" fill="#878684"/>
<path d="M66.0935 54.1673H69.5893V54.873H66.0935V54.1673Z" fill="#878684"/>
<path d="M73.5387 58.627C73.6316 58.1001 73.7012 57.5921 73.7477 57.1028C73.8034 56.6136 73.8312 56.0349 73.8312 55.3669V52.502C73.7291 52.455 73.6223 52.4126 73.5109 52.375C73.3995 52.328 73.2788 52.2903 73.1488 52.2621C73.0931 52.2433 73.0327 52.2292 72.9677 52.2198C72.912 52.2103 72.8517 52.2009 72.7867 52.1915L72.9259 51.6976H73.3995C73.7059 51.6976 74.0076 51.6882 74.3047 51.6694C74.6111 51.6505 74.8758 51.6317 75.0986 51.6129L75.1543 51.6411C75.3864 52.2339 75.6975 52.9395 76.0874 53.7581C76.1246 53.8427 76.1617 53.9274 76.1989 54.0121C76.236 54.0874 76.2731 54.1626 76.3103 54.2379L77.6891 57.131L80.2795 51.6976H80.6556C80.8041 51.6976 80.9666 51.6929 81.143 51.6835C81.3195 51.6741 81.4634 51.6599 81.5748 51.6411L81.5887 51.754C81.5423 52.4126 81.5191 53.1935 81.5191 54.0968V58.246C81.6305 58.246 81.9415 58.1895 82.4522 58.0766C82.48 58.0672 82.5079 58.0625 82.5358 58.0625C82.5636 58.0531 82.5915 58.0437 82.6193 58.0343L82.6611 58.119L82.3965 58.754H80.4327V58.6129C80.442 58.4153 80.4513 58.2177 80.4606 58.0202C80.4699 57.8226 80.4745 57.6297 80.4745 57.4415C80.4838 57.2251 80.4884 56.9005 80.4884 56.4677V52.5444L77.5637 58.754H77.3687L74.5694 53.0101C74.5601 52.9819 74.5461 52.9583 74.5276 52.9395C74.5183 52.9113 74.5044 52.8878 74.4858 52.869C74.4765 52.8501 74.4626 52.8313 74.444 52.8125C74.4254 52.7843 74.4022 52.7655 74.3744 52.756V58.2601C74.5136 58.2507 74.6761 58.2271 74.8618 58.1895C75.0847 58.1425 75.2657 58.1048 75.405 58.0766L75.4468 58.1613L75.21 58.754H73.5387V58.627Z" fill="#878684"/>
<path d="M87.5958 58.9093C86.8623 58.9093 86.2959 58.7399 85.8967 58.4012C85.4975 58.0531 85.2978 57.6015 85.2978 57.0464C85.2978 56.5195 85.4603 56.1055 85.7853 55.8044C86.1103 55.5034 86.5095 55.2917 86.983 55.1694C87.4658 55.0376 88.0322 54.9483 88.6822 54.9012C89.1278 54.8636 89.4899 54.8165 89.7685 54.7601C90.047 54.6942 90.2652 54.5954 90.4231 54.4637C90.5809 54.332 90.6598 54.1626 90.6598 53.9556C90.6598 53.4005 90.5113 52.9583 90.2141 52.629C89.9263 52.2903 89.541 52.121 89.0582 52.121C88.6868 52.121 88.3247 52.2198 87.9719 52.4173C87.619 52.6055 87.2987 52.8642 87.0109 53.1935C86.723 53.5228 86.4863 53.8945 86.3006 54.3085L86.2867 54.3226L85.8131 54.2097L86.607 51.246H87.2476L87.2755 51.3024L86.8855 52.3185C86.9969 52.2809 87.1501 52.2103 87.3451 52.1069C87.6144 51.9375 87.8837 51.8058 88.1529 51.7117C88.4222 51.6082 88.7425 51.5565 89.1139 51.5565C89.8845 51.5565 90.4927 51.8105 90.9384 52.3185C91.3933 52.8266 91.6208 53.5134 91.6208 54.379V58.246C91.7322 58.246 92.0433 58.1895 92.5539 58.0766C92.5818 58.0672 92.6096 58.0625 92.6375 58.0625C92.6654 58.0531 92.6886 58.0437 92.7071 58.0343L92.7628 58.119L92.4982 58.754H90.618V58.6129C90.6273 58.4718 90.632 58.3259 90.632 58.1754C90.6413 58.0155 90.6459 57.8602 90.6459 57.7097C90.6552 57.6062 90.6598 57.5074 90.6598 57.4133C90.6598 57.3192 90.6598 57.2251 90.6598 57.131C90.437 57.6767 90.047 58.1095 89.4899 58.4294C88.9328 58.7493 88.3015 58.9093 87.5958 58.9093ZM87.8744 58.2742C88.385 58.2742 88.8539 58.1613 89.281 57.9355C89.7081 57.7003 90.0424 57.3804 90.2838 56.9758C90.5345 56.5712 90.6598 56.1243 90.6598 55.6351L90.6737 54.8589C90.5159 55 90.2838 55.1176 89.9774 55.2117C89.671 55.2964 89.3182 55.3575 88.9189 55.3952C88.0461 55.4704 87.3962 55.6304 86.9691 55.875C86.5513 56.1196 86.3424 56.496 86.3424 57.004C86.3424 57.4086 86.4816 57.7238 86.7602 57.9496C87.0387 58.166 87.4101 58.2742 87.8744 58.2742Z" fill="#878684"/>
<path d="M103.399 58.119L103.135 58.754H101.171V58.6129C101.208 57.832 101.227 57.0793 101.227 56.3548V52.8125L96.4219 59.0645H96.213C96.2409 58.246 96.2548 57.4274 96.2548 56.6089V52.2056C96.1062 52.2056 95.7952 52.2574 95.3216 52.3609L95.1545 52.4032L95.1127 52.3185L95.3634 51.6976H96.4219C96.5612 51.6976 96.7237 51.6929 96.9094 51.6835C97.1043 51.6741 97.2483 51.6599 97.3411 51.6411L97.355 51.754C97.3086 52.4126 97.2854 53.1935 97.2854 54.0968V57.0464L101.366 51.6976H101.45C101.561 51.6976 101.696 51.6929 101.854 51.6835C102.011 51.6741 102.16 51.6599 102.299 51.6411L102.313 51.754C102.313 51.9328 102.308 52.1163 102.299 52.3044C102.299 52.4926 102.295 52.6855 102.285 52.8831C102.276 53.0806 102.267 53.2829 102.257 53.4899C102.257 53.6969 102.257 53.8992 102.257 54.0968V58.246C102.369 58.246 102.68 58.1895 103.191 58.0766C103.218 58.0672 103.246 58.0625 103.274 58.0625C103.302 58.0531 103.33 58.0437 103.358 58.0343L103.399 58.119ZM101.784 48.1552C101.784 48.6351 101.677 49.0585 101.464 49.4254C101.259 49.7829 100.967 50.0652 100.586 50.2722C100.205 50.4698 99.7645 50.5685 99.2631 50.5685C98.7617 50.5685 98.3207 50.4698 97.94 50.2722C97.5593 50.0652 97.2622 49.7829 97.0486 49.4254C96.8444 49.0585 96.7422 48.6351 96.7422 48.1552V48.0423L97.3133 48V48.1411C97.3133 48.621 97.4897 49.0067 97.8425 49.2984C98.1953 49.5806 98.6688 49.7218 99.2631 49.7218C99.8573 49.7218 100.331 49.5806 100.684 49.2984C101.046 49.0067 101.227 48.621 101.227 48.1411V48L101.784 48.0423V48.1552Z" fill="#878684"/>
<path d="M112.247 54.4355C112.08 54.0403 111.857 53.6687 111.579 53.3206C111.3 52.9724 110.985 52.6949 110.632 52.4879C110.279 52.2715 109.912 52.1633 109.532 52.1633C109.104 52.1633 108.715 52.295 108.362 52.5585C108.018 52.8219 107.744 53.1888 107.54 53.6593C107.345 54.1203 107.248 54.6425 107.248 55.2258C107.248 55.8091 107.35 56.336 107.554 56.8065C107.758 57.2769 108.041 57.6438 108.403 57.9073C108.766 58.1707 109.169 58.3024 109.615 58.3024C110.005 58.3024 110.377 58.1895 110.729 57.9637C111.091 57.7285 111.412 57.4368 111.69 57.0887C111.969 56.7312 112.182 56.3642 112.331 55.9879L112.874 56.1431L112.052 59.2198H111.384L111.356 59.1633L111.816 58.0484C111.676 58.0954 111.5 58.1848 111.286 58.3165C111.036 58.4859 110.776 58.627 110.507 58.7399C110.237 58.8434 109.922 58.8952 109.559 58.8952C108.91 58.8952 108.325 58.7399 107.805 58.4294C107.294 58.1095 106.89 57.672 106.593 57.1169C106.296 56.5524 106.147 55.9173 106.147 55.2117C106.147 54.5249 106.296 53.9039 106.593 53.3488C106.89 52.7843 107.294 52.3468 107.805 52.0363C108.315 51.7164 108.891 51.5565 109.532 51.5565C109.931 51.5565 110.27 51.6129 110.548 51.7258C110.836 51.8293 111.101 51.9657 111.342 52.1351C111.416 52.1821 111.486 52.2245 111.551 52.2621C111.616 52.2997 111.672 52.3233 111.718 52.3327L111.314 51.3165L111.356 51.2601H112.011L112.777 54.2802L112.247 54.4355Z" fill="#878684"/>
<path d="M118.106 58.6129C118.143 57.832 118.162 57.0793 118.162 56.3548V52.2198H118.078C117.568 52.2198 117.145 52.2621 116.811 52.3468C116.477 52.4315 116.212 52.5491 116.017 52.6996C115.822 52.8501 115.669 53.0195 115.557 53.2077L115.488 53.3629L115.056 53.1935L115.85 50.8508H116.574L116.602 50.879L116.087 51.6976H121.309L120.794 50.879L120.808 50.8508H121.546L122.34 53.1935L121.908 53.3629L121.839 53.2077C121.727 53.0195 121.569 52.8501 121.365 52.6996C121.17 52.5491 120.901 52.4315 120.557 52.3468C120.223 52.2621 119.801 52.2198 119.29 52.2198H119.192V58.246C119.313 58.246 119.517 58.2224 119.805 58.1754C120.093 58.1284 120.344 58.0813 120.557 58.0343L120.613 58.119L120.307 58.754H118.106V58.6129Z" fill="#878684"/>
<path d="M129.963 59.1633L130.394 58.0484C130.329 58.0766 130.251 58.1142 130.158 58.1613C130.074 58.1989 129.986 58.246 129.893 58.3024C129.633 58.4812 129.373 58.627 129.113 58.7399C128.853 58.8434 128.533 58.8952 128.152 58.8952C127.484 58.8952 126.875 58.7399 126.328 58.4294C125.789 58.1095 125.362 57.672 125.046 57.1169C124.74 56.5618 124.587 55.9362 124.587 55.2399C124.587 54.5437 124.74 53.918 125.046 53.3629C125.362 52.7984 125.789 52.3562 126.328 52.0363C126.875 51.7164 127.484 51.5565 128.152 51.5565C128.839 51.5565 129.447 51.7117 129.977 52.0222C130.506 52.3327 130.919 52.7655 131.216 53.3206C131.513 53.8757 131.662 54.506 131.662 55.2117C131.662 55.2587 131.662 55.3105 131.662 55.3669C131.662 55.414 131.662 55.4563 131.662 55.494H125.659C125.687 56.0397 125.808 56.5289 126.021 56.9617C126.244 57.3851 126.537 57.7191 126.899 57.9637C127.27 58.1989 127.683 58.3165 128.138 58.3165C128.51 58.3165 128.876 58.2177 129.238 58.0202C129.61 57.8226 129.935 57.5733 130.213 57.2722C130.492 56.9711 130.696 56.6747 130.826 56.3831V56.369L131.369 56.5101L130.645 59.2198H130.004L129.963 59.1633ZM130.589 54.9294C130.552 54.3743 130.427 53.8898 130.213 53.4758C130.009 53.0524 129.726 52.7231 129.364 52.4879C129.011 52.2527 128.598 52.1351 128.124 52.1351C127.669 52.1351 127.261 52.2574 126.899 52.502C126.537 52.7372 126.244 53.0665 126.021 53.4899C125.808 53.9039 125.687 54.3837 125.659 54.9294H130.589Z" fill="#878684"/>
<path d="M135.513 61.4355C135.55 60.5887 135.569 59.836 135.569 59.1774V52.2056C135.411 52.2056 135.1 52.2574 134.635 52.3609L134.468 52.4032L134.427 52.3185L134.677 51.6976H135.666C135.805 51.6976 135.968 51.6929 136.154 51.6835C136.339 51.6741 136.479 51.6599 136.571 51.6411L136.585 51.754C136.576 51.8763 136.567 52.0034 136.557 52.1351C136.557 52.2574 136.557 52.3797 136.557 52.502C136.548 52.6243 136.544 52.7513 136.544 52.8831C136.544 53.0148 136.539 53.1465 136.53 53.2782C136.771 52.7419 137.124 52.3233 137.588 52.0222C138.062 51.7117 138.605 51.5565 139.218 51.5565C139.83 51.5565 140.378 51.7164 140.861 52.0363C141.353 52.3562 141.738 52.7984 142.017 53.3629C142.305 53.918 142.449 54.539 142.449 55.2258C142.449 55.922 142.305 56.5477 142.017 57.1028C141.738 57.6579 141.353 58.0954 140.861 58.4153C140.378 58.7352 139.83 58.8952 139.218 58.8952C138.614 58.8952 138.085 58.7493 137.63 58.4577C137.175 58.1566 136.831 57.752 136.599 57.244V61.0685C136.785 61.0685 137.152 61.0168 137.699 60.9133C137.783 60.8945 137.853 60.8804 137.908 60.871L137.964 60.9556L137.644 61.5766H135.513V61.4355ZM138.953 58.246C139.408 58.246 139.816 58.1142 140.179 57.8508C140.541 57.5874 140.824 57.2298 141.028 56.7782C141.242 56.3172 141.348 55.7997 141.348 55.2258C141.348 54.6519 141.242 54.1344 141.028 53.6734C140.824 53.2124 140.541 52.8548 140.179 52.6008C139.816 52.3374 139.408 52.2056 138.953 52.2056C138.498 52.2056 138.085 52.3421 137.713 52.6149C137.351 52.8878 137.068 53.2547 136.864 53.7157C136.66 54.1767 136.557 54.6801 136.557 55.2258C136.557 55.7997 136.66 56.3172 136.864 56.7782C137.077 57.2298 137.365 57.5874 137.727 57.8508C138.099 58.1142 138.507 58.246 138.953 58.246Z" fill="#878684"/>
<path d="M153.484 58.119L153.219 58.754H151.255V58.6129C151.283 57.9449 151.297 57.1922 151.297 56.3548V55.5363H147.369V56.3548C147.369 57.1452 147.388 57.8978 147.425 58.6129V58.754H146.283V58.6129C146.32 57.7567 146.339 57.004 146.339 56.3548V52.2056C146.181 52.2056 145.87 52.2574 145.406 52.3609L145.239 52.4032L145.197 52.3185L145.448 51.6976H146.506C146.645 51.6976 146.808 51.6929 146.993 51.6835C147.188 51.6741 147.332 51.6599 147.425 51.6411L147.439 51.754C147.393 52.4973 147.369 53.2782 147.369 54.0968V54.9153H151.297V53.6169C151.297 52.9019 151.278 52.2997 151.241 51.8105V51.6976H151.492C151.631 51.6976 151.794 51.6929 151.979 51.6835C152.174 51.6741 152.309 51.6599 152.383 51.6411L152.411 51.754C152.365 52.3468 152.342 53.1277 152.342 54.0968V58.246C152.453 58.246 152.764 58.1895 153.275 58.0766C153.302 58.0672 153.33 58.0625 153.358 58.0625C153.386 58.0531 153.414 58.0437 153.442 58.0343L153.484 58.119Z" fill="#878684"/>
<path d="M155.632 58.6129C155.66 58.5847 155.688 58.5612 155.716 58.5423C155.744 58.5141 155.772 58.4859 155.8 58.4577C156.292 57.959 156.691 57.5168 156.997 57.131L158.153 55.5927C157.615 55.4422 157.206 55.2117 156.928 54.9012C156.649 54.5813 156.51 54.1956 156.51 53.744C156.51 53.0948 156.77 52.5914 157.29 52.2339C157.819 51.8763 158.59 51.6976 159.602 51.6976H160.994C161.143 51.6976 161.306 51.6929 161.482 51.6835C161.668 51.6741 161.807 51.6599 161.9 51.6411L161.928 51.754C161.881 52.3468 161.858 53.1277 161.858 54.0968V58.246C161.969 58.246 162.28 58.1895 162.791 58.0766C162.819 58.0672 162.847 58.0625 162.875 58.0625C162.903 58.0531 162.93 58.0437 162.958 58.0343L163 58.119L162.735 58.754H160.772V58.6129C160.809 57.879 160.827 57.1263 160.827 56.3548V55.8044H159.713C159.62 55.8044 159.527 55.8044 159.435 55.8044C159.342 55.795 159.249 55.7856 159.156 55.7762L157.234 58.3024C157.336 58.3024 157.55 58.2695 157.875 58.2036C157.968 58.1848 158.056 58.166 158.139 58.1472C158.223 58.1284 158.302 58.1142 158.376 58.1048L158.418 58.1754L158.139 58.754H155.646L155.632 58.6129ZM160.827 55.254V52.2198H159.671C158.994 52.2198 158.469 52.3515 158.098 52.6149C157.736 52.8784 157.554 53.25 157.554 53.7298C157.554 54.2191 157.736 54.5954 158.098 54.8589C158.469 55.1223 158.994 55.254 159.671 55.254H160.827Z" fill="#878684"/>
<path fill-rule="evenodd" clip-rule="evenodd" d="M174.244 33L174.195 31.8935L174 30.9154C174.939 30.4717 175.606 30.3057 176.635 30.0496C176.739 30.0239 176.846 29.9972 176.957 29.9693C176.727 28.9724 176.634 28.3354 176.47 27.1951V24.004L177.461 22.9296C177.351 22.4036 177.349 22.1709 177.461 21.8713C177.923 21.5583 178.057 21.3027 177.916 20.6044C178.615 20.0424 178.781 19.6741 178.729 18.9528C178.946 18.114 179.182 17.8102 179.785 17.5256C180.356 17.0861 180.713 16.9818 181.377 16.9002C181.256 16.4113 181.342 16.165 181.783 15.7777C181.956 14.3822 182.166 13.6569 183.684 12.9394C183.656 11.3241 185.28 12.1703 184.903 12.6989C184.903 12.6989 185.824 12.8145 186.219 13.4205C186.989 14.4004 187.084 14.9876 187.129 16.0022C188.008 16.7742 188.586 17.0383 189.68 17.3813C189.985 17.631 190.069 17.7541 190.135 17.9586C190.691 18.2075 190.865 18.3813 190.964 18.7443C192.002 18.9796 192.519 19.2137 193.109 20.1554C193.624 20.2904 193.889 20.3978 194.198 20.8129C194.796 20.9787 195.175 21.2074 195.904 21.7911L195.611 22.5448L195.075 21.9033C194.43 21.7235 194.09 21.5576 193.548 21.0695C192.72 20.8621 192.471 20.5093 192.082 19.9582C192.046 19.908 192.01 19.8562 191.972 19.8027C191.902 19.5638 191.485 19.4633 190.925 19.3284C190.793 19.2967 190.654 19.2631 190.509 19.2254C190.299 19.1426 190.166 19.0171 189.892 18.6C189.394 18.4387 189.2 18.1395 188.868 17.5737C187.418 17.22 186.978 16.7449 186.463 15.6975C184.946 16.0813 184.13 16.0872 182.726 15.8258C182.603 16.2434 182.504 16.4285 182.206 16.6276C182.2 17.5269 181.487 17.8706 180.266 18.4598L180.175 18.5038C179.618 19.7844 179.304 20.4362 178.729 20.9733C178.725 21.5983 178.598 21.8835 178.111 22.2561C178.229 23.2435 177.896 23.7048 177.055 24.3247C177.062 26.4652 177.203 27.6664 177.461 29.8089L178.014 29.6325L177.542 24.6294C177.758 24.4782 177.881 24.4292 178.111 24.6294L178.631 29.3599L179.882 29.0232L179.541 22.657C180.536 21.4345 181.21 21.1346 182.71 21.5987C183.566 20.3532 184.161 20.0689 185.553 20.7327C187.096 18.7054 188.019 18.8537 189.729 20.6044C189.706 20.7756 189.669 20.8643 189.437 20.9733C187.573 19.5549 186.752 19.4978 185.911 21.4543L185.391 21.5987C183.942 20.7511 183.464 21.1152 182.872 22.4165L182.563 22.4967C181.519 21.8158 181.034 21.9798 180.288 22.9296L180.695 28.8147L183.587 28.1893C183.883 28.2935 184.206 28.2745 184.887 28.1893L184.757 24.6454C184.873 24.1641 185.027 24.0209 185.391 23.8918L195.481 24.5492V25.4312L186.187 24.6454C185.661 24.621 185.473 24.6618 185.212 24.7737L185.391 28.061H185.748C185.749 27.2014 185.77 26.725 186.073 25.9443C186.425 25.3496 186.682 25.2709 187.276 25.7198C187.682 26.5127 187.739 27.0387 187.666 28.061H187.877C187.897 27.3954 187.912 27.0237 188.137 26.4254C188.389 25.9109 188.58 25.7084 189.079 25.6236C189.705 25.6174 189.943 25.8003 190.217 26.3773L190.298 28.2695L191.468 28.3978C191.563 27.8477 191.582 27.5142 191.533 26.8584C191.382 26.1716 191.256 26.0983 190.915 26.8584C190.795 26.8915 190.777 26.8306 190.769 26.682C190.865 26.2933 190.968 26.1041 191.322 25.8641C191.837 25.8623 192.052 25.9855 192.329 26.4254C192.469 27.1584 192.46 27.5954 192.447 28.2721L192.443 28.4779L198 28.959V29.6806C190.43 28.8145 186.874 28.5003 184.042 28.8147L184.269 30.322L183.457 30.4824L183.343 28.4779C179.92 29.6916 177.999 30.3498 174.569 31.3964C174.628 32.125 174.706 32.4305 174.91 32.7915L174.244 33ZM183 14.9954C184.204 15.0177 184.863 14.9646 186 14.715C186.002 14.1017 185.878 13.7608 185.221 13.1637C184.471 12.8367 184.117 12.9876 183.577 13.7244C183.24 14.157 183.107 14.4312 183 14.9954ZM187 28H186C186.007 27.4329 186.029 27.114 186.179 26.5417C186.575 25.7284 186.737 25.9166 187 26.5417V28ZM188 27.8965L189 28V26.6716C188.821 25.9056 188.659 25.7691 188.188 26.3955C188.079 26.8404 188.027 27.124 188 27.8965Z" fill="#151514"/>
<path d="M206.403 48.9555C205.799 50.4667 205.416 51.3001 205 52.8701C205.048 52.9943 205.108 53.0116 205.248 52.9944L205.446 52.5439C205.94 51.7532 206.167 51.254 206.551 50.338C207.25 48.8352 207.687 48.0197 208.647 46.6719L208.669 46.6401C209.354 45.6538 209.744 45.091 210.825 44.6214C211.038 44.4629 211.03 44.31 210.941 44C209.885 44.1314 209.391 44.6298 208.532 45.6156C207.507 46.7873 207.04 47.5183 206.403 48.9555Z" fill="#151514"/>
<path d="M183.557 59.699L180.64 60.7727C180.556 60.9279 180.6 60.9785 180.806 61.0167C181.608 60.989 182.141 60.8778 183.292 60.4474C184.337 60.1569 184.934 59.9185 186.009 59.4224L184.253 60.545L181.651 62.302C180.35 63.1923 179.648 63.637 178.535 64.1728C177.88 64.3971 177.584 64.6975 177.127 65.4092C176.721 66.374 176.472 66.8261 176 67.5078C176.067 67.8851 176.118 68.0635 176.365 67.9796L177.127 66.8896C177.417 66.0186 177.582 65.5332 178.187 65.0838C179.047 64.7062 179.512 64.4403 180.309 63.8474L183.292 61.8952L187.534 58.853L190.434 56.8846L188.18 58.9669C187.438 59.5406 187.071 59.883 186.54 60.545L184.468 62.4809C183.59 63.4106 183.099 63.9063 182.231 64.4982L180.806 66.2226C179.927 66.6746 179.433 66.8845 178.535 66.8896C178.353 66.6491 178.241 66.5243 177.989 66.3528C177.781 66.289 177.757 66.4722 177.856 67.1337C178.073 67.6686 178.261 67.8357 178.734 67.8657C179.618 67.7852 180.116 67.6032 181.005 67.1337L183.507 64.3355C184.783 63.3637 185.381 62.733 186.44 61.6024L187.998 59.9756L189.804 58.2186C190.503 57.4845 190.899 57.0775 191.71 56.4616L193.251 55.0788L195.207 53.3055C196.051 52.5694 196.555 52.2027 197.543 51.6787L200.543 49.5638L202.465 48.2135L204.338 46.8795L205.713 46.0824L207.37 45.09C207.69 44.9116 207.889 44.8451 208 44.3091C207.865 44.2101 207.848 44.1455 208 44L207.138 44.2278C206.116 44.6273 205.632 44.9577 204.835 45.6268L201.322 48.1484L198.355 50.3447C196.652 51.4409 195.727 52.0824 194.163 53.3055L190.6 56.0223L187.302 57.9258C185.708 58.7995 184.874 59.2053 183.557 59.699Z" fill="#151514"/>
<path d="M182.506 55.2163C181.334 56.9383 180.863 57.953 180 59.7565C180.074 59.959 180.125 60.0245 180.247 59.9922L180.544 59.458L181.599 57.7299L182.803 55.829C183.449 55.2352 183.83 54.9668 184.567 54.6822C185.585 54.3219 186.153 54.1311 187.205 53.6296L189.926 51.9015C190.755 51.258 191.246 50.9643 192.185 50.5976L194.295 49.6079L195.96 48.8852C196.461 48.6653 197.566 48.1814 197.988 48.0054C198.411 47.8295 199.11 47.5446 199.406 47.4242C199.748 47.2874 199.928 47.2075 200 47C199.363 47.0491 198.565 47.361 197.296 47.8169L192.828 49.4193C190.99 50.1161 190.103 50.6302 188.64 51.6502C186.934 52.6905 185.994 53.0669 184.32 53.7082C183.592 53.906 183.198 54.3064 182.506 55.2163Z" fill="#151514"/>
<path d="M213.497 54.0026C212.674 54.3605 212.367 54.6231 212.003 55.1657C211.987 55.4045 212.04 55.3925 212.204 55.217C212.79 54.7979 213.084 54.6759 213.497 54.8236L215.192 55.5591C216.333 56.0145 216.849 56.0232 217.744 55.9867L220.027 55.6275L222.041 55.7814C222.525 55.7526 222.728 55.6734 222.947 55.4052C223.064 55.2173 222.983 55.1728 222.746 55.1315L221.605 54.8236C220.383 54.4642 219.704 54.4385 218.499 54.6013C217.266 54.8408 216.62 54.8471 215.595 54.5328C214.831 54.1654 214.398 53.9752 213.497 54.0026Z" fill="#151514"/>
<path d="M231.07 76.0396C230.095 76.252 229.683 76.4469 229.036 76.8443C228.974 76.9203 228.992 76.9452 229.096 76.9611C229.62 76.8602 229.925 76.821 230.524 76.8443L232.725 77C233.116 76.9097 233.066 76.7505 232.725 76.3641C232.164 75.9773 231.785 75.9567 231.07 76.0396Z" fill="#151514"/>
<path d="M232.249 69.0025C231.359 69.3294 230.871 69.523 230.012 69.8784C229.973 69.997 230.027 70.0107 230.181 69.9943C231.674 69.7943 232.821 69.7549 233 69.2473C232.783 69.0659 232.644 68.9842 232.249 69.0025Z" fill="#151514"/>
<path d="M230.522 67.8465C230.004 68.2963 229.669 68.5044 229.048 68.8536C228.914 69.0127 229.074 69.0062 229.356 68.9949L229.363 68.9946L230.522 68.5313C231.129 68.198 231.459 67.9847 231.996 67.4638C232.019 67.1206 231.945 66.9912 231.485 67.0005L230.522 67.8465Z" fill="#151514"/>
<path d="M177.854 71.182C176.233 71.3347 175.322 71.4205 174.001 71.846C173.994 71.9226 174.024 71.941 174.099 71.9595L179.625 71.8784C181.015 71.9603 181.78 71.9672 183.108 71.8784H185.691C186.819 72.0382 187.458 72.0428 188.617 71.8784L191.854 71.5867C193.027 71.8413 193.672 71.9028 194.797 71.8784C196.336 71.9336 197.262 71.8989 199.326 71.4084C200.431 70.9461 201.036 70.7074 201.828 70.6629L203.806 70.4035L205.735 69.9335L207.501 69.3986L209.43 69.3176C210.502 69.2227 210.933 69.1059 211.653 68.88L214.384 68.3776C215.249 68.1014 215.657 67.8854 216.166 67.324L217.752 66.2381L218.667 65.2008L219.534 64.439C219.689 64.1971 219.66 64.0816 219.452 63.9042C218.839 63.6651 218.495 63.5759 217.866 63.4828L215.43 63.0452L213.795 62.6076L212.291 61.943H213.01L214.482 62.2834C215.241 62.6011 215.689 62.7577 216.46 62.9479C217.271 63.1778 217.726 63.2505 218.536 63.191C219.164 63.0083 219.53 62.9113 219.828 62.6076C220.326 61.9171 219.692 61.7253 218.591 61.3922L218.536 61.3758C217.251 61.2121 216.638 60.9924 215.724 60.4033C216.011 59.8101 216.058 59.5238 215.43 59.3012C214.542 59.4104 214.054 59.428 213.256 59.1553C212.329 58.7965 211.938 58.4838 211.245 57.9235C210.531 57.089 210.318 56.6176 210.542 55.7678L211.147 53.2394C211.468 52.598 211.625 52.2487 211.359 51.8618C211.15 51.4872 210.996 51.3165 210.672 51.0838C210.42 50.9632 210.333 50.9627 210.329 51.1486L210.672 51.6186C210.925 52.2042 210.855 52.4311 210.591 52.7694L210.215 54.1957L209.544 56.2055C209.566 57.164 209.746 57.6692 210.411 58.5232C210.794 59.0093 211.109 59.2648 211.751 59.7064C212.523 60.2781 213.024 60.3853 213.975 60.4033C214.464 60.2401 214.735 60.1651 215.185 60.1602C214.911 60.5519 214.892 60.7716 215.316 61.1651C215.756 61.5133 216.032 61.6937 216.673 61.943C217.359 62.2883 217.748 62.4406 218.455 62.6076C218.223 62.7413 217.964 62.7446 217.245 62.6076C216.468 62.5282 216.089 62.3757 215.43 62.0727L213.435 61.3758C212.305 61.2863 211.819 61.3335 211.751 61.943C211.774 62.4079 211.983 62.6504 212.683 63.0452C213.238 63.4436 213.562 63.602 214.171 63.7421C214.957 64.0417 215.376 64.1372 216.1 64.2283L216.159 64.2395C217.097 64.4189 217.64 64.5229 218.455 64.439L217.245 65.2008L215.577 66.2381L213.174 67.5023C211.839 67.9255 211.095 68.0101 209.773 68.0696C208.291 68.0876 207.704 68.3171 206.667 68.7341C205.068 69.1731 204.402 69.175 203.266 69.1231L199.833 69.7552C198.631 70.2314 197.917 70.3893 196.628 70.6304C195.27 70.7894 194.508 70.7321 193.146 70.2577C191.81 70.1187 191.121 70.1137 190.023 70.2577L187.031 70.598L183.892 70.7277L184.824 69.5283C185.361 68.9587 185.662 68.6228 186.198 67.8589C186.582 67.4256 186.792 67.1674 187.031 66.3192C187.054 65.8625 187.199 65.6467 187.784 65.3629C188.295 65.1112 188.554 64.8933 188.977 64.3904L190.367 62.9479L192.541 60.695L194.421 58.977L196.154 57.5669C196.392 57.198 196.559 56.9774 196.269 56.8214C196.04 56.8763 195.984 56.8515 196.154 56.5944L194.994 57.3724C194.141 57.9109 193.741 58.2502 193.113 58.896L190.743 61.2623L188.111 63.8556C186.831 64.717 186.204 65.1842 186.443 65.7843C185.861 67.1242 185.437 67.6121 184.726 68.6045C184.188 69.4398 183.969 69.9033 183.631 70.7277L177.86 71.1815L177.854 71.182Z" fill="#151514"/>
<path d="M192.21 36.0554C190.969 35.9698 190.291 35.9942 189.087 36.0554C188.902 36.1822 189.033 36.2114 189.287 36.2601L191.097 36.4963C191.895 36.5679 192.343 36.6336 193.141 36.827C193.826 37.0067 194.185 37.1457 194.769 37.4884L196.297 38.1971C196.617 38.584 196.826 38.7351 197.427 38.4805C197.566 38.7986 197.803 38.9696 198.357 39.2679L199.769 39.7875L201.181 40.5749C201.181 40.5749 202.61 41.2678 202.743 41.4095C202.876 41.5513 204.221 42.3386 204.221 42.3386L205.467 43C206.359 42.9612 206.836 42.8226 207.677 42.5118H209.703C210.732 42.8125 211.301 42.9046 212.295 42.874L214.239 42.5118L216.913 41.756C217.512 41.518 217.876 41.339 218.309 41.378L218.508 40.3229C218.409 40.8256 217.775 41.0864 215.8 41.5197L219.721 38.4647L221 36.6066C220.427 37.2401 220.09 37.5096 219.472 37.8506L216.913 39.6458C215.899 40.3796 215.383 40.8418 214.554 41.756C213.854 41.9159 213.445 41.9477 212.677 41.8977C211.281 41.5726 210.497 41.454 209.089 41.5197C207.843 41.5288 207.204 41.8316 206.032 42.2126C205.346 41.9855 205.012 41.7805 204.421 41.4095C204.421 41.4095 202.593 40.008 201.181 39.6143C199.769 39.2206 198.932 38.8502 198.257 38.1971C198.465 37.9829 198.374 37.8929 198.041 37.7561C197.003 37.8225 196.535 37.457 195.666 36.9215C194.317 36.2176 193.56 36.1011 192.21 36.0554Z" fill="#151514"/>
<path d="M218.447 9.66667C218.515 9.47442 218.514 9.31105 218.497 9L218.983 10.3675L218.531 10.1453C218.442 10.2908 218.206 10.2846 217.726 10.2821C217.32 10.3001 217.109 10.3443 216.788 10.5385C217.562 10.8787 218.023 11.0679 218.179 11.4444C218.278 11.8818 218.326 12.1865 218.464 12.3162C218.728 12.6729 218.83 12.8918 218.782 13.3761L218.531 14.094L219 14.7436L218.481 15L218.045 14.4872C217.914 14.0689 218.004 13.8562 218.179 13.4786C218.238 13.1334 217.861 13.0855 217.76 12.5385C217.659 11.9915 217.741 11.7436 217.525 11.5983C216.989 11.3867 216.7 11.2533 216.235 10.9487C215.902 10.3969 215.832 10.106 216.637 9.73504C217.316 9.62668 217.714 9.61458 218.447 9.66667Z" fill="#151514"/>
<path fill-rule="evenodd" clip-rule="evenodd" d="M208.012 8C208.04 8.21465 208.037 8.31491 208.012 8.47466C208.514 8.30668 208.796 8.26698 209.302 8.36008C209.896 8.54849 209.856 8.66194 209.617 8.86748H208.773C208.467 8.84161 208.317 8.84715 208.111 8.91658L207.814 9.60401L208.111 10.1441C208.351 10.3339 208.461 10.5034 208.641 10.8479C209.077 10.9635 209.314 11.0662 209.716 11.3717L209.717 11.3722C210.216 11.6479 210.496 11.8027 211.023 11.6663C211.045 11.6609 211.067 11.6555 211.089 11.6502C211.603 11.525 211.911 11.45 212.561 11.5026H214.216C214.67 11.6408 214.848 11.5523 215.026 11.0771C215.282 10.5475 215.439 10.2698 215.771 9.84952L215.572 9.04752C215.976 8.69025 216.209 8.54392 216.647 8.49102C216.834 8.55399 216.877 8.60041 216.813 8.7038L216.35 9.75132L215.506 11.1589C215.184 11.8489 214.925 12.0917 214.216 12.0755H212.76C212.136 12.0492 211.839 12.0883 211.37 12.2228H210.775L211.585 14.6452C211.756 15.4318 211.937 15.7768 212.545 16.0692C213.282 16.0602 213.701 16.068 214.53 16.2656L216.068 16.5929C216.632 16.6722 216.894 16.6321 217.309 16.4784C217.396 16.6165 217.295 16.7057 216.631 16.9039C216.303 17.0974 216.059 17.0939 215.605 17.0512C215.139 17.3077 214.826 17.4029 214.166 17.4768L212.379 17.2149L211.205 16.7566C211.155 16.7485 211.109 16.7412 211.064 16.7343C210.751 16.6857 210.538 16.6526 210.262 16.4784L210.063 15.4472L208.723 15.9873L208.029 16.2656L208.591 17.2149L209.369 18.4261L211.023 19.0317C211.351 19.179 211.538 19.2931 211.883 19.6373L212.859 20.2101C212.924 20.5773 212.833 20.6549 212.644 20.7666L211.47 19.9483L210.063 19.2936L208.972 18.9498L208.475 18.1315L207.913 17.1494L207.499 16.4784C207.47 16.1573 207.511 16.0094 207.863 15.9055L208.79 15.5454C208.669 15.5588 208.551 15.5718 208.436 15.5845C206.581 15.789 205.439 15.915 204.422 16.2656L201.445 16.5929C199.564 17.9616 198.615 18.7407 197.64 20.2101C197.368 21.0638 197.055 21.4154 196.416 21.9778V24.0074C196.825 24.1064 197.021 24.2322 197.276 24.6621C197.579 24.8745 197.827 24.925 198.334 24.9567C198.732 24.996 198.882 25.2361 198.996 26.1024V29.0158L203.198 29.4414C203.964 28.4306 204.737 27.9608 205.865 27.2749C206.032 27.1733 206.207 27.067 206.391 26.9535L210.063 24.6621C211.708 23.6924 212.702 23.3222 214.53 22.7962C216.33 22.1024 217.383 21.7835 219.36 21.3722C219.214 21.03 219.136 20.8379 219.096 20.4884C219.109 20.0595 219.168 19.8319 219.658 19.5227L220.022 19.3918C220.061 19.6089 219.977 19.6756 219.807 19.7846C219.57 19.9346 219.527 20.0811 219.658 20.4884C220.028 20.8096 220.283 20.8866 220.833 20.8648C221.341 20.8409 221.574 20.7525 221.792 20.3083C221.931 19.7638 222.068 19.5671 222.619 19.7846C223.073 19.9837 223.048 20.2957 222.917 20.9139C222.52 21.4522 222.268 21.6199 221.792 21.7978C221.313 22.0332 221.006 22.0087 220.452 21.9451L219.658 21.5686L217.293 22.2233L215.556 22.9435L212.76 24.0729L209.931 25.6932L207.648 27.3136L205.547 28.9831L203.099 31.34C203.049 32.2273 202.66 32.3971 201.875 32.6167L199.526 33.8442L200.386 34.548C200.448 34.5382 200.508 34.5286 200.565 34.5192C201.149 34.4244 201.527 34.3631 202.156 34.548C202.478 34.5346 202.81 34.5633 203.206 34.5973C203.696 34.6396 204.284 34.6902 205.067 34.679C206.365 34.4425 207.099 34.4033 208.426 34.5644C209.022 34.6114 209.361 34.6171 210.014 34.4171C210.439 34.2554 210.663 34.2153 211.023 34.2862L211.933 32.8622C212.403 31.9767 212.759 31.5734 213.521 30.9799C214.087 30.0539 214.406 29.5372 215.374 28.9995C215.997 28.7929 216.363 28.6104 217.061 28.0993L218.55 27.33C218.776 27.2598 218.9 27.2532 219.112 27.3955C218.937 27.8175 218.678 28.0202 218.304 28.3133C218.246 28.3594 218.184 28.4076 218.12 28.4593C217.276 29.4024 216.774 29.8031 215.787 30.1125C215.12 30.3922 214.764 30.8302 214.179 31.5497C214.148 31.5881 214.116 31.6273 214.083 31.6674L213.058 32.764L211.718 34.0734L213.173 33.4514C213.806 33.2975 214.297 33.4969 215.192 33.8933C215.901 34.0758 216.279 34.2888 216.862 35.17C217.01 35.8371 216.759 35.9496 216.168 36.0375C215.963 35.9274 215.868 35.7908 215.754 35.3501C215.811 34.9781 215.352 34.7797 214.133 34.4335C213.774 34.105 213.459 34.0787 212.743 34.2371L211.718 34.5644C211.825 34.5825 211.925 34.5982 212.02 34.6131C212.557 34.6973 212.936 34.7567 213.587 35.0882C214.144 35.483 214.374 35.8548 214.778 36.5285C215.393 36.5546 215.734 36.6668 216.333 37.1341C216.526 37.6053 216.532 37.934 216.432 38.5908C216.27 38.9325 216.18 38.964 216.019 39C215.994 38.6963 215.949 38.5685 215.853 38.3617V37.7561C215.386 37.3392 215.111 37.304 214.613 37.3633C214.138 37.1628 213.992 36.8623 213.774 36.4135C213.746 36.3561 213.717 36.2963 213.686 36.2339C213.489 35.7689 213.322 35.5383 212.859 35.2191L211.37 34.7445C210.911 34.5589 210.697 34.5418 210.427 34.7445C209.749 35.1366 209.278 35.1751 208.359 35.0882H206.622L204.604 35.7265C203.184 35.788 202.299 35.5931 200.853 35.2746C200.771 35.2565 200.687 35.238 200.601 35.2191C200.486 36.1153 200.331 36.532 199.939 37.1668H199.774C199.96 36.6522 200.028 36.3557 199.989 35.792L199.939 34.99L198.649 34.0734C198.574 33.9585 198.512 33.86 198.459 33.7745C198.133 33.2547 198.11 33.2179 197.325 32.8949C196.722 32.6782 196.063 32.7284 194.745 32.8949C194.12 33.0339 193.702 33.023 192.809 32.8131C192.76 32.8083 192.713 32.8036 192.666 32.799C191.92 32.725 191.459 32.6794 191.039 33.0095L192.71 33.4187L194.745 33.5333C195.228 33.6087 195.442 33.7002 195.754 33.9261C195.526 34.0597 195.126 34.0815 194.166 34.0734L192.66 34.1716L190.808 33.8279L188.839 33.4187C187.999 33.1848 187.519 33.1648 186.655 33.2386L185.514 33.4187L187.929 33.8933L189.947 34.2534C190.862 34.5431 191.305 34.722 191.949 35.0718C191.916 35.2819 191.829 35.3558 191.585 35.4319L190.328 34.9572L188.574 34.5971L186.44 34.1389L184.968 33.8933C184.472 33.7753 184.367 33.6558 184.405 33.3696C184.619 33.0581 184.924 32.9197 186.109 32.7967C186.797 32.5976 187.222 32.5894 188.028 32.7149L190.758 33.2386C190.594 32.5908 190.699 32.2895 191.502 31.9456C192.327 31.8316 192.898 31.9219 193.967 32.1584L195.985 31.9947C196.799 31.9881 197.26 32.0541 198.103 32.4857C198.568 32.781 198.735 32.9993 198.98 33.4187L201.081 32.1584L198.334 31.9947L195.224 31.7492L192.247 31.4873L189.17 31.1927L185.514 31.0127H183.744C182.84 31.6362 182.124 31.7598 180.816 31.9456L177.474 32.7149L174.811 33.3696L176.878 33.5333L178.847 33.8933C178.844 33.3764 178.874 33.1104 179.625 33.1732C180.239 33.1899 180.394 33.5497 180.501 34.4989L180.617 35.5137C181.482 36.1001 181.841 36.2731 182.106 36.1193C182.006 36.0171 181.909 35.9236 181.817 35.8355C181.421 35.4544 181.127 35.1713 181.113 34.6954C180.946 34.2608 180.904 34.0212 181.113 33.6151C181.345 33.4304 181.509 33.4179 181.858 33.5333L182.255 33.8933C182.042 34.0462 181.891 34.0443 181.61 34.0079C181.454 34.2398 181.675 34.6574 182.189 35.5137C182.515 35.8357 182.708 35.9718 183.099 36.0048C183.094 35.7401 183.033 35.6198 182.867 35.4319C182.542 35.1336 182.399 34.9431 182.321 34.4989C182.334 34.0828 182.369 33.8707 182.553 33.5824C182.784 33.5084 182.926 33.5005 183.214 33.5824L184.223 34.3844C184.578 34.6769 184.779 34.7776 185.15 34.6954C185.236 34.7857 185.205 34.8203 185.117 34.8754C184.818 35.0283 184.651 35.0556 184.356 35.0391L183.462 34.4989L182.867 34.0407L182.817 34.6299C183.294 34.9034 183.477 35.1055 183.628 35.5628L185.266 35.7592L186.258 35.6283C186.507 35.7848 186.607 35.8873 186.655 36.1193L185.795 36.2994L184.554 36.3976L183.264 36.2994C183.12 36.4031 183.027 36.4423 182.817 36.4467L181.924 36.6758C181.535 36.6343 181.323 36.5717 180.965 36.2994C180.663 36.1765 180.44 36.0192 180.204 35.7592C180.093 35.8016 179.999 35.8279 179.915 35.8374C179.799 35.1395 179.801 34.7504 180 34.2178C179.62 33.9967 179.403 33.9638 179 34.0313C179.151 34.7304 179.404 35.1576 179.841 35.8414C179.682 35.8402 179.548 35.7713 179.376 35.6283L178.897 34.3844C178.665 34.6717 178.274 34.6015 177.474 34.3844L175.82 34.0079L174.529 33.8115C174.235 33.789 174.137 33.5728 174 33.075L174.695 32.7967L178.384 31.6019L183.462 30.4398L184.223 30.3089C186.859 30.2571 188.348 30.3047 191.039 30.6199L196.813 31.1272L202.586 31.4873V30.1452L198.103 29.6705C198.291 28.2928 198.227 27.3697 198.124 25.8779C198.117 25.7807 198.11 25.681 198.103 25.5787L195.638 25.3168C195.561 24.1943 195.6 23.555 195.754 22.4034L196.068 21.6341L197.044 20.2756C197.075 19.4235 197.329 19.0257 198.252 18.4752L200.617 16.4784C201.418 15.9596 202.015 15.8247 203.198 15.7091L203.223 15.7003C204.476 15.2541 205.187 15.0012 206.689 15.1199C206.774 15.1162 206.857 15.1128 206.937 15.1094C208.006 15.0648 208.677 15.0368 209.931 14.8252C210.035 14.6241 210.147 14.4736 210.262 14.3193C210.382 14.1581 210.506 13.9928 210.626 13.7614C210.755 13.3187 210.596 12.9357 210.262 12.2228C209.892 12.1528 209.675 11.9912 209.286 11.6663C208.862 11.6083 208.634 11.5696 208.326 11.4372C208.14 11.1658 207.983 11.0296 207.709 10.7921L207.698 10.7825L207.218 9.84952C207.226 9.46787 207.332 9.26374 207.698 8.91658C207.539 8.73142 207.61 8.52725 207.724 8.19838C207.732 8.17646 207.739 8.15399 207.747 8.13094L208.012 8Z" fill="#151514"/>
<path d="M211.59 1.33497C210.933 1.723 210.592 1.99195 210 2.5013L210.128 3.0163L211.028 2.66792L211.863 2.30439L212.698 2.38012L213.693 2.5013C214.264 2.59716 214.387 2.69155 214.657 2.84968L215.604 3.42527L216.68 4.13719L217.05 3.92513L215.604 3.0163L214.657 2.5013L213.485 2.22865L212.489 2.10747C212.087 2.05707 211.881 2.0669 211.59 2.22865L210.128 2.77395L211.188 2.22865C211.565 2.01994 211.782 1.92645 212.136 1.63791L213.115 1.74394L214.336 1.97115L215.444 2.22865L216.68 2.77395L217.82 3.65248L218.752 4.54616L219.683 5.59132C220.089 6.07203 220.311 6.34243 220.39 6.86368L221 7L220.727 5.95485L219.796 4.71278L218.366 3.25866C217.623 2.64378 217.233 2.38644 216.552 1.97115C215.838 1.66469 215.381 1.5229 214.464 1.33497L212.939 1.04717C212.31 0.945952 212.006 0.992664 211.59 1.33497Z" fill="#151514"/>
<path d="M209.53 4.22875C208.93 4.73376 208.646 5.05243 207.972 5.55621C208.012 6.01286 208.212 6.30557 208.48 6.30088L208.202 6.65703C207.571 6.78879 207.295 6.88515 207.382 7.22362C206.997 7.77426 207.128 7.95314 207.612 8.17875L207.808 8.03305C208.41 7.7585 208.728 7.70277 209.218 7.98448C209.35 7.9999 209.419 7.98299 209.53 7.88735L209.776 7.98448C209.875 7.932 209.916 7.88745 209.907 7.72547C209.774 7.59394 209.657 7.54915 209.218 7.62834C208.977 7.46433 208.851 7.44674 208.628 7.41789L207.677 7.70928L207.808 7.22362C208.277 7.20049 208.475 7.13466 208.628 6.85129C208.983 6.83528 209.156 6.84491 209.317 6.96461L209.644 7.46645C209.888 7.53946 210.024 7.5653 210.267 7.46645L210.265 7.47157C210.186 7.62053 210.141 7.70562 210.169 7.88735C210.248 8.04299 210.303 8.1218 210.497 8.17875V8.69678C210.713 9.01383 210.837 9.1828 211.104 9.31194V9.7976H209.317C208.439 9.46812 208.016 9.36746 207.677 9.70047L207.284 10.2671L207.972 10.1537L208.628 10.2671C209.258 10.5076 209.617 10.559 210.267 10.4128H212.071H213.842L215.563 9.7976L216.432 9.16625L216.613 8.76155L216.432 8.53489L214.645 9.45764L212.743 9.55477L211.432 9.70047C211.603 9.32752 211.314 9.01196 210.874 8.47014C210.922 8.10187 210.834 7.92905 210.366 7.70928L210.497 7.28838L209.94 7.12649L209.53 6.65703H208.628L208.858 6.17137L209.431 6.30088L210.267 6.49514C210.438 6.37209 210.531 6.30049 210.563 6.07424L210.169 6.17137L210.1 6.15453C209.465 5.99871 209.088 5.90631 208.48 5.89617L208.382 5.70191L208.858 5.21625L209.972 3.98593H209.661L210.104 3.38695L209.94 2.85273L210.169 2.14044C210.607 1.43933 210.792 0.978538 211.661 0.764414L214.383 0.958676L216.94 0.764414C217.568 0.97693 217.946 1.18594 218.858 2.36708L220.137 3.61359L220.875 5.68572C221.182 6.54531 221.332 7.01759 221.219 7.69309L220.498 7.53121L218.662 5.68572C218.179 5.13733 217.908 4.83039 217.17 4.42301L216.793 4.61728C216.751 5.14681 216.855 5.43622 217.17 5.94473C217.585 6.6231 217.82 6.96905 218.252 7.30457L218.498 8.89104L219.006 10.2994C219.646 10.4401 219.998 11.0241 220.629 12.3716C219.954 12.9686 219.779 13.3286 219.858 14.0228L218.498 14.6541C218.96 15.3583 218.839 15.9713 219.858 16.5968C220.76 17.2926 221.389 17.5744 222.613 17.989C223.868 18.3505 224.527 18.717 225.515 20.0611L227.63 22.3761C228.223 24.0003 228.074 24.7804 227.302 26.0347C226.96 28.0361 226.458 28.5219 225.515 29.2885C224.99 30.7439 224.474 31.3122 223.285 32.0244C222.394 33.205 221.939 34.3068 221.121 36.2172L218.924 39.4873C218.575 40.1614 218.428 40.5496 218.367 41.2842L218.76 43.2107C218.923 44.224 218.851 44.7028 218.219 45.2828L218.596 45.8656C219.124 46.4698 219.406 46.8159 219.662 47.5816C219.977 48.7048 220.289 49.3269 220.941 50.4307C220.842 51.3633 221.04 51.8138 222.367 52.341L224.629 53.8951C225.831 54.6798 226.416 55.1943 226.646 56.7928C227.048 57.9348 227.377 58.3137 228.269 58.2174C228.663 59.0564 228.781 59.5065 228.564 60.2248L229.548 61.9731C230.694 62.8304 231.062 63.6857 231.482 65.5346L232.564 66.5545C233.302 67.7284 233.312 68.4883 232.958 69.9379L233.368 73.3213L233.827 77.2389L233.827 77.2576C233.85 77.9252 233.862 78.3053 233.073 78.7606C231.54 79.107 230.734 78.9118 229.351 78.1778C228.77 78.0502 228.591 77.8168 228.662 76.9637L228.859 73.9526C229.004 72.4425 229.119 71.5417 228.859 70.6987C228.744 70.2654 227.906 70.0456 226.646 69.6465L223.383 67.7038L220.137 66.3116L221.039 67.0725L223.383 68.4323C224.379 68.9495 224.916 69.2589 225.629 70.035C226.998 70.7819 227.959 71.2202 227.826 71.8157H223.892H221.17L218.711 72.4309L214.186 72.528L212.317 72.4309L206.07 73.1432L201.857 73.5965H195.824L189.512 74.1145L185.888 73.904L180.691 74.3897L178.609 74.5354L175.822 75.5553L173.559 75.9438L171.363 76.9151H167.198L165.723 76.6723L164.575 75.7333V75.2153H165.969C166.89 75.1233 167.415 74.922 168.362 74.3897C169.614 73.233 170.113 72.3192 170.985 70.6663L173.756 65.5346L176.265 60.3705C177.779 56.7421 178.636 54.7366 180.527 52.5514C181.415 50.1241 181.952 48.8108 183.528 47.2092L183.549 47.1083C183.87 45.5887 184.057 44.7061 185.052 43.502L186.364 39.6978L188.921 37.318C189.037 36.8688 189.041 36.6123 188.79 36.1363C187.628 36.5843 186.982 36.9164 185.856 37.8037L184.642 41.9641C182.741 44.8834 182.725 46.7074 181.085 49.5404C179.444 52.3733 179.199 52.9281 177.92 54.8826C177.094 58.2226 176.405 59.4998 175.133 61.6655C174.663 62.3513 172.114 67.2129 172.133 67.0887C172.152 66.9645 170.061 71.6548 168.018 73.3374C165.975 75.0201 162.931 73.0536 163.001 75.5715L164.395 76.9151L165.837 77.6598L170.526 78.0807L172.691 77.1741L180.199 74.9725H184.97L189.626 74.6487L194.61 74.4383L198.873 74.7944H203.398L208.923 74.0983H214.497L218.793 73.5155L223.285 72.9165H228.023C227.623 74.144 227.581 75.0247 227.564 76.6561C227.125 78.3328 227.917 78.9018 230.253 79.5862C231.808 80.1904 232.666 80.1345 234.171 79.4081C234.962 78.8044 235.118 78.3257 234.925 77.2389C234.037 74.2682 233.846 72.9235 233.827 70.8606C234.1 69.1096 234.153 68.1278 233.581 66.3764C232.032 64.9819 231.673 64.2027 231.482 62.8149C230.236 62.2358 228.346 59.7421 229.335 59.2858C230.324 58.8295 227.876 57.1004 227.318 55.8053C226.761 54.5102 224.763 52.8267 222.367 51.4344C221.229 50.0123 220.81 49.1693 220.531 47.5816C220.01 46.5564 219.652 46.0313 218.76 45.2828C219.153 44.8893 219.286 44.6151 219.35 44.0201C219.854 42.5416 218.613 41.382 218.76 40.9605C218.907 40.5389 220.765 37.9072 222.187 35.9906C222.139 34.9973 224.348 31.6884 225.761 30.9236C227.173 30.1588 227.96 27.9847 228.581 25.0633C228.818 22.1454 228.047 21.2415 226.4 19.8507C226.539 19.7147 224.449 17.8738 222.613 17.3738C220.776 16.8738 219.004 14.9094 219.367 15.156C220.447 14.7352 220.709 14.3531 220.498 13.3753L221.072 12.8248C221.527 12.5508 221.739 12.3458 221.76 11.546C221.66 10.593 221.519 10.0817 221.219 9.18243C221.706 8.28585 221.928 7.75329 222.072 6.65703C221.678 6.20277 221.591 5.90442 221.613 5.31338C221.418 4.29528 221.232 3.75215 220.711 2.85273C219.071 1.32804 218.183 0.332148 216.252 0.0844976C213.71 0.158659 211.912 -0.27288 210.825 0.311137C210.359 0.922039 210.116 1.1811 209.694 1.59003C209.491 1.94828 209.505 2.536 209.528 3.54928V3.54934L209.53 3.61359C209.166 4.07058 209.277 4.13889 209.53 4.22875Z" fill="#151514"/>
<path d="M212.109 3.0136C211.618 3.02169 211.358 3.04217 211.038 3.21725C210.957 3.41092 211.005 3.52771 211.174 3.74334L211.732 4.4052L211.672 4.93129C211.72 4.99747 211.751 5.00272 211.808 4.99917C212.199 4.87849 212.395 4.76729 212.697 4.49005C212.99 4.50339 213.155 4.5306 213.451 4.62581C213.686 4.5122 213.808 4.4459 213.874 4.2864C213.607 3.94628 213.42 3.8395 213.074 3.67546C212.737 3.55198 212.562 3.53093 212.26 3.52272L211.943 3.86214C211.868 3.8757 211.839 3.84884 211.808 3.74334L211.943 3.33605H212.32C212.66 3.29023 212.853 3.27938 213.21 3.33605L213.874 3.67546C214.142 3.54026 213.951 3.39431 213.602 3.1324C213.021 2.99439 212.694 2.98384 212.109 3.0136Z" fill="#151514"/>
</svg>
